<svg width="40" height="41" viewBox="0 0 40 41" fill="none" xmlns="http://www.w3.org/2000/svg">
<path fill-rule="evenodd" clip-rule="evenodd" d="M3.33333 20.4998C3.33333 29.8324 10.7958 37.3979 20 37.3979C29.2042 37.3979 36.6667 29.8324 36.6667 20.4998C36.6667 11.1683 29.2037 3.60165 20 3.60165C10.7963 3.60165 3.33333 11.1683 3.33333 20.4998ZM5.83333 20.4998C5.83333 12.5682 12.177 6.13637 20 6.13637C27.823 6.13637 34.1667 12.5682 34.1667 20.4998C34.1667 28.4325 27.8236 34.8632 20 34.8632C12.1764 34.8632 5.83333 28.4325 5.83333 20.4998ZM16.5928 25.6093C16.2287 26.1046 16.2675 26.8088 16.7103 27.2597C17.1974 27.7557 17.9889 27.7574 18.4781 27.2636L24.2881 21.3982L24.4097 21.2559C24.7747 20.759 24.7342 20.0524 24.2881 19.602L18.4781 13.7367L18.3376 13.6143C17.8475 13.2472 17.1531 13.2896 16.7103 13.7406L16.5896 13.883C16.2276 14.3799 16.2694 15.0839 16.7141 15.5329L21.6333 20.5018L16.7141 25.4674L16.5928 25.6093Z" fill="#2E2E5D"/>
</svg>
