<svg width="40" height="41" viewBox="0 0 40 41" fill="none" xmlns="http://www.w3.org/2000/svg">
<path fill-rule="evenodd" clip-rule="evenodd" d="M36.6667 20.5002C36.6667 11.1676 29.2042 3.60205 20 3.60205C10.7958 3.60205 3.33334 11.1676 3.33334 20.5002C3.33334 29.8317 10.7963 37.3983 20 37.3983C29.2037 37.3983 36.6667 29.8317 36.6667 20.5002ZM34.1667 20.5002C34.1667 28.4318 27.823 34.8636 20 34.8636C12.177 34.8636 5.83333 28.4318 5.83333 20.5002C5.83333 12.5675 12.1764 6.13677 20 6.13677C27.8236 6.13677 34.1667 12.5675 34.1667 20.5002ZM23.4072 15.3907C23.7713 14.8954 23.7325 14.1912 23.2897 13.7403C22.8026 13.2443 22.0111 13.2426 21.5219 13.7364L15.7119 19.6018L15.5903 19.7441C15.2253 20.241 15.2658 20.9476 15.7119 21.398L21.5219 27.2633L21.6624 27.3857C22.1525 27.7528 22.8469 27.7104 23.2897 27.2594L23.4104 27.117C23.7724 26.6201 23.7306 25.9161 23.2859 25.4671L18.3667 20.4982L23.2859 15.5326L23.4072 15.3907Z" fill="#2E2E5D"/>
</svg>
