<svg width="24" height="24" viewBox="0 0 24 24" fill="none" xmlns="http://www.w3.org/2000/svg">
<path fill-rule="evenodd" clip-rule="evenodd" d="M7.52081 13.1972C6.85981 13.1972 6.32281 12.6602 6.32281 12.0002C6.32281 11.3402 6.85981 10.8022 7.52081 10.8022C8.18181 10.8022 8.71881 11.3402 8.71881 12.0002C8.71881 12.6602 8.18181 13.1972 7.52081 13.1972ZM12.0002 13.1972C11.3392 13.1972 10.8022 12.6602 10.8022 12.0002C10.8022 11.3402 11.3392 10.8022 12.0002 10.8022C12.6612 10.8022 13.1982 11.3402 13.1982 12.0002C13.1982 12.6602 12.6612 13.1972 12.0002 13.1972ZM15.2812 12.0002C15.2812 12.6602 15.8182 13.1972 16.4792 13.1972C17.1402 13.1972 17.6772 12.6602 17.6772 12.0002C17.6772 11.3402 17.1402 10.8022 16.4792 10.8022C15.8182 10.8022 15.2812 11.3402 15.2812 12.0002Z" fill="#2E2E5D"/>
</svg>
