<svg width="73" height="73" viewBox="0 0 73 73" fill="none" xmlns="http://www.w3.org/2000/svg">
<path fill-rule="evenodd" clip-rule="evenodd" d="M6.5 36.5178C6.5 19.7292 19.9653 6.0835 36.5 6.0835C53.0347 6.0835 66.5 19.7292 66.5 36.5178C66.5 53.2711 53.0347 66.9168 36.5 66.9168C19.9653 66.9168 6.5 53.2711 6.5 36.5178ZM47.5038 39.5964C47.8224 39.2736 48.2278 38.7747 48.3147 38.6573C48.778 38.041 49.0096 37.2781 49.0096 36.518C49.0096 35.6641 48.749 34.8717 48.2567 34.2261C48.2164 34.1852 48.1374 34.0981 48.0345 33.9845C47.8418 33.7719 47.5653 33.4668 47.3011 33.199C44.9266 30.6166 38.7297 26.3909 35.4865 25.0997C34.9942 24.8972 33.749 24.4541 33.083 24.4247C32.4459 24.4247 31.8378 24.5714 31.2587 24.8649C30.5347 25.2757 29.9556 25.9213 29.6371 26.6843C29.4344 27.2125 29.1158 28.7972 29.1158 28.8265C28.7973 30.5579 28.6235 33.3751 28.6235 36.4857C28.6235 39.4526 28.7973 42.1494 29.0579 43.9102C29.0651 43.9174 29.09 44.0433 29.1287 44.239C29.2463 44.8337 29.4914 46.0727 29.7529 46.5806C30.3899 47.8131 31.6351 48.5761 32.9672 48.5761H33.083C33.9517 48.5468 35.7761 47.7838 35.7761 47.7544C38.8455 46.4632 44.8977 42.4429 47.3301 39.7724L47.5038 39.5964Z" fill="#4838D1"/>
</svg>
