<svg width="24" height="25" viewBox="0 0 24 25" fill="none" xmlns="http://www.w3.org/2000/svg">
<path fill-rule="evenodd" clip-rule="evenodd" d="M2.02148 13.1784C2.02148 10.7661 3.89542 8.79724 6.24772 8.68671L6.45648 8.68181H7.38948C7.8037 8.68181 8.13948 9.02226 8.13948 9.44223C8.13948 9.8272 7.85733 10.1454 7.49125 10.1957L7.38948 10.2026H6.45648C4.89358 10.2026 3.61575 11.4416 3.52647 13.0036L3.52148 13.1784L3.52148 18.1211C3.52148 19.7049 4.74362 21.0003 6.28406 21.0908L6.45648 21.0959H17.5865C19.1493 21.0959 20.4272 19.857 20.5165 18.2959L20.5215 18.1211V13.1683C20.5215 11.5893 19.3039 10.2979 17.7693 10.2077L17.5975 10.2026H16.6545C16.2403 10.2026 15.9045 9.86219 15.9045 9.44223C15.9045 9.05726 16.1866 8.73911 16.5527 8.68875L16.6545 8.68181H17.5975C19.9687 8.68181 21.9046 10.5745 22.0164 12.9509L22.0215 13.1683V18.1211C22.0215 20.5326 20.1474 22.5013 17.7952 22.6118L17.5865 22.6167H6.45648C4.07743 22.6167 2.13535 20.7169 2.02631 18.3327L2.02148 18.1211V13.1784ZM11.4796 2.02851C11.6162 1.88396 11.8084 1.79395 12.0214 1.79395C12.2365 1.79395 12.4304 1.88576 12.5672 2.03282L15.4687 4.98675C15.761 5.28432 15.76 5.76579 15.4665 6.06214C15.1997 6.33155 14.783 6.35523 14.4898 6.13374L14.4059 6.05993L12.7714 4.39709L12.7714 14.7626C12.7714 15.1826 12.4356 15.523 12.0214 15.523C11.6417 15.523 11.3279 15.237 11.2782 14.8658L11.2714 14.7626L11.2714 4.39539L9.63779 6.05984C9.37212 6.33041 8.95551 6.35589 8.66142 6.13567L8.57714 6.06223C8.31028 5.79287 8.28514 5.37048 8.50235 5.0723L8.57478 4.98685L11.4796 2.02851Z" fill="#2E2E5D"/>
</svg>
