<svg width="24" height="25" viewBox="0 0 24 25" fill="none" xmlns="http://www.w3.org/2000/svg">
<path fill-rule="evenodd" clip-rule="evenodd" d="M20.5377 3.70596C20.3024 3.35631 19.8375 3.26995 19.4992 3.51308C19.1609 3.75621 19.0773 4.23676 19.3126 4.58641C20.7164 6.67302 21.5078 9.44036 21.5078 12.4414C21.5078 15.4426 20.7162 18.211 19.3126 20.2974C19.0773 20.647 19.1609 21.1276 19.4992 21.3707C19.8375 21.6138 20.3024 21.5275 20.5377 21.1778C22.1203 18.8254 23 15.7491 23 12.4414C23 9.13392 22.1205 6.0586 20.5377 3.70596ZM10.5311 3.63927L10.6861 3.63314L10.8272 3.63469C11.8372 3.68479 12.7007 4.45438 13.0313 5.59558C13.1234 5.95944 13.1754 6.31529 13.236 6.89459L13.3167 7.65376C13.479 9.4136 13.4738 16.3264 13.3012 17.7516L13.1941 18.7735C13.1517 19.1182 13.1034 19.3833 13.0242 19.6875C12.6826 20.8666 11.74 21.6566 10.6976 21.624C10.1671 21.6375 9.52098 21.3585 9.07152 20.9679L5.53009 17.9945L3.70741 17.995C2.36468 17.995 1.40832 17.0634 1.17341 15.6422L1.14689 15.4541C0.947973 13.9928 0.954152 11.3359 1.14681 9.73883C1.3396 8.31416 2.34629 7.26311 3.70741 7.26311L5.52909 7.26254L8.98222 4.35426C9.40026 3.98826 10.0241 3.68722 10.5311 3.63927ZM10.701 5.17465L10.6632 5.1748C10.5428 5.17212 10.1559 5.34791 9.93587 5.54035L6.26629 8.63193C6.13316 8.7441 5.96666 8.80535 5.79489 8.80535H3.70741C3.14209 8.80535 2.72023 9.2458 2.62606 9.941C2.45054 11.3967 2.44467 13.9181 2.62636 15.2539C2.72068 16.0576 3.10264 16.4527 3.70741 16.4527H5.79489C5.9662 16.4527 6.1323 16.5137 6.26527 16.6253L10.022 19.779C10.222 19.9528 10.5295 20.0856 10.701 20.0824C11.0717 20.0935 11.4379 19.7866 11.5889 19.2666C11.6674 18.9638 11.7083 18.6805 11.759 18.1598L11.7921 17.821L11.8203 17.5623C11.9832 16.2175 11.9832 9.04053 11.8201 7.69341L11.7141 6.71663C11.6891 6.51051 11.6648 6.3472 11.6378 6.20718L11.5949 6.01217C11.4379 5.47097 11.0712 5.16348 10.701 5.17465ZM16.086 6.65973C16.4243 6.41663 16.8893 6.50301 17.1245 6.85268C18.1407 8.36342 18.7034 10.331 18.7034 12.4419C18.7034 14.5525 18.1409 16.5192 17.1245 18.0301C16.8893 18.3797 16.4243 18.4661 16.086 18.223C15.7477 17.9799 15.6641 17.4994 15.8993 17.1497C16.7368 15.9048 17.2112 14.2461 17.2112 12.4419C17.2112 10.6375 16.7366 8.97777 15.8993 7.73306C15.6641 7.38339 15.7477 6.90284 16.086 6.65973Z" fill="#2E2E5D"/>
</svg>
