<svg width="116" height="19" viewBox="0 0 116 19" fill="none" xmlns="http://www.w3.org/2000/svg">
<mask id="path-1-outside-1_3027_1036" maskUnits="userSpaceOnUse" x="-2" y="-1" width="119" height="21" fill="black">
<rect fill="white" x="-2" y="-1" width="119" height="21"/>
<path d="M0.328125 18H4.04297L5.32031 13.8984H11.2969L12.5742 18H16.2891L10.3945 1.08984H6.23438L0.328125 18ZM8.27344 4.37109H8.34375L10.4766 11.25H6.14062L8.27344 4.37109ZM21.5859 18.2578C23.4844 18.2578 24.7734 17.3672 25.418 15.9258H25.4883V18H28.9102V5.4375H25.4883V12.6562C25.4883 14.2969 24.5156 15.4219 22.9805 15.4219C21.4453 15.4219 20.6719 14.4727 20.6719 12.832V5.4375H17.25V13.5469C17.25 16.4883 18.8203 18.2578 21.5859 18.2578ZM35.7891 18.2578C37.6055 18.2578 38.9883 17.3438 39.6562 15.8555H39.7266V18H43.1484V1.08984H39.7266V7.61719H39.6562C38.9766 6.09375 37.5703 5.17969 35.7891 5.17969C32.625 5.17969 30.6797 7.61719 30.6797 11.707V11.7188C30.6797 15.7969 32.625 18.2578 35.7891 18.2578ZM36.9375 15.4219C35.2266 15.4219 34.1602 14.0039 34.1602 11.7188V11.707C34.1602 9.41016 35.2383 8.01562 36.9375 8.01562C38.5898 8.01562 39.7383 9.44531 39.7383 11.707V11.7188C39.7383 13.9922 38.6016 15.4219 36.9375 15.4219ZM47.2148 3.82031C48.2461 3.82031 49.043 3.01172 49.043 2.03906C49.043 1.06641 48.2461 0.257812 47.2148 0.257812C46.1836 0.257812 45.3867 1.06641 45.3867 2.03906C45.3867 3.01172 46.1836 3.82031 47.2148 3.82031ZM45.5039 18H48.9258V5.4375H45.5039V18ZM51.6914 18H57.7031C61.4531 18 63.5273 16.2422 63.5273 13.3711V13.3477C63.5273 11.0156 61.8516 9.42188 59.4609 9.14062V9.10547C61.3359 8.80078 62.6484 7.14844 62.6484 5.28516V5.26172C62.6484 2.76562 60.6914 1.08984 57.7148 1.08984H51.6914V18ZM57.375 2.50781C59.6719 2.50781 61.0312 3.59766 61.0312 5.41406V5.4375C61.0312 7.44141 59.4961 8.60156 56.9297 8.60156H53.2852V2.50781H57.375ZM57.3398 9.98438C60.2109 9.98438 61.8867 11.168 61.8867 13.2891V13.3125C61.8867 15.3867 60.3984 16.582 57.4805 16.582H53.2852V9.98438H57.3398ZM70.5234 18.2227C73.8398 18.2227 76.0781 15.7852 76.0781 11.9062V11.8828C76.0781 8.00391 73.8281 5.58984 70.5234 5.58984C67.207 5.58984 64.9688 8.01562 64.9688 11.8828V11.9062C64.9688 15.7734 67.1953 18.2109 70.5234 18.2227ZM70.5352 16.8398C68.1328 16.8281 66.5625 15 66.5625 11.9062V11.8828C66.5625 8.8125 68.1445 6.97266 70.5234 6.97266C72.9023 6.97266 74.4961 8.80078 74.4961 11.8828V11.9062C74.4961 14.9883 72.9141 16.8398 70.5352 16.8398ZM83.0859 18.2227C86.4023 18.2227 88.6406 15.7852 88.6406 11.9062V11.8828C88.6406 8.00391 86.3906 5.58984 83.0859 5.58984C79.7695 5.58984 77.5312 8.01562 77.5312 11.8828V11.9062C77.5312 15.7734 79.7578 18.2109 83.0859 18.2227ZM83.0977 16.8398C80.6953 16.8281 79.125 15 79.125 11.9062V11.8828C79.125 8.8125 80.707 6.97266 83.0859 6.97266C85.4648 6.97266 87.0586 8.80078 87.0586 11.8828V11.9062C87.0586 14.9883 85.4766 16.8398 83.0977 16.8398ZM90.8555 18H92.4023V13.2773L93.7617 12.0117L98.6367 18H100.465L94.875 11.0625L100.348 5.8125H98.4258L92.4492 11.5547H92.4023V1.08984H90.8555V18ZM105.715 18.2227C108.387 18.2227 110.32 16.7578 110.32 14.6836V14.6719C110.32 12.9609 109.395 12.0117 106.969 11.4258L105.129 10.9922C103.523 10.6055 102.867 9.98438 102.867 9.01172V9C102.867 7.75781 103.969 6.90234 105.621 6.90234C107.32 6.90234 108.398 7.82812 108.598 9.24609L108.609 9.32812H110.098L110.086 9.19922C109.887 7.10156 108.223 5.58984 105.621 5.58984C103.078 5.58984 101.285 7.03125 101.285 9.05859V9.07031C101.285 10.7578 102.387 11.7656 104.684 12.3164L106.523 12.7617C108.152 13.1484 108.738 13.7227 108.738 14.7773V14.7891C108.738 16.0664 107.566 16.9102 105.727 16.9102C103.887 16.9102 102.75 15.9961 102.504 14.5898L102.48 14.4844H100.934L100.945 14.5898C101.18 16.7461 102.949 18.2227 105.715 18.2227Z"/>
<path d="M113.848 18.1875C114.797 18.1875 115.535 17.4375 115.535 16.4883C115.535 15.5508 114.797 14.8008 113.848 14.8008C112.898 14.8008 112.148 15.5508 112.148 16.4883C112.148 17.4375 112.898 18.1875 113.848 18.1875Z"/>
</mask>
<path d="M0.328125 18H4.04297L5.32031 13.8984H11.2969L12.5742 18H16.2891L10.3945 1.08984H6.23438L0.328125 18ZM8.27344 4.37109H8.34375L10.4766 11.25H6.14062L8.27344 4.37109ZM21.5859 18.2578C23.4844 18.2578 24.7734 17.3672 25.418 15.9258H25.4883V18H28.9102V5.4375H25.4883V12.6562C25.4883 14.2969 24.5156 15.4219 22.9805 15.4219C21.4453 15.4219 20.6719 14.4727 20.6719 12.832V5.4375H17.25V13.5469C17.25 16.4883 18.8203 18.2578 21.5859 18.2578ZM35.7891 18.2578C37.6055 18.2578 38.9883 17.3438 39.6562 15.8555H39.7266V18H43.1484V1.08984H39.7266V7.61719H39.6562C38.9766 6.09375 37.5703 5.17969 35.7891 5.17969C32.625 5.17969 30.6797 7.61719 30.6797 11.707V11.7188C30.6797 15.7969 32.625 18.2578 35.7891 18.2578ZM36.9375 15.4219C35.2266 15.4219 34.1602 14.0039 34.1602 11.7188V11.707C34.1602 9.41016 35.2383 8.01562 36.9375 8.01562C38.5898 8.01562 39.7383 9.44531 39.7383 11.707V11.7188C39.7383 13.9922 38.6016 15.4219 36.9375 15.4219ZM47.2148 3.82031C48.2461 3.82031 49.043 3.01172 49.043 2.03906C49.043 1.06641 48.2461 0.257812 47.2148 0.257812C46.1836 0.257812 45.3867 1.06641 45.3867 2.03906C45.3867 3.01172 46.1836 3.82031 47.2148 3.82031ZM45.5039 18H48.9258V5.4375H45.5039V18ZM51.6914 18H57.7031C61.4531 18 63.5273 16.2422 63.5273 13.3711V13.3477C63.5273 11.0156 61.8516 9.42188 59.4609 9.14062V9.10547C61.3359 8.80078 62.6484 7.14844 62.6484 5.28516V5.26172C62.6484 2.76562 60.6914 1.08984 57.7148 1.08984H51.6914V18ZM57.375 2.50781C59.6719 2.50781 61.0312 3.59766 61.0312 5.41406V5.4375C61.0312 7.44141 59.4961 8.60156 56.9297 8.60156H53.2852V2.50781H57.375ZM57.3398 9.98438C60.2109 9.98438 61.8867 11.168 61.8867 13.2891V13.3125C61.8867 15.3867 60.3984 16.582 57.4805 16.582H53.2852V9.98438H57.3398ZM70.5234 18.2227C73.8398 18.2227 76.0781 15.7852 76.0781 11.9062V11.8828C76.0781 8.00391 73.8281 5.58984 70.5234 5.58984C67.207 5.58984 64.9688 8.01562 64.9688 11.8828V11.9062C64.9688 15.7734 67.1953 18.2109 70.5234 18.2227ZM70.5352 16.8398C68.1328 16.8281 66.5625 15 66.5625 11.9062V11.8828C66.5625 8.8125 68.1445 6.97266 70.5234 6.97266C72.9023 6.97266 74.4961 8.80078 74.4961 11.8828V11.9062C74.4961 14.9883 72.9141 16.8398 70.5352 16.8398ZM83.0859 18.2227C86.4023 18.2227 88.6406 15.7852 88.6406 11.9062V11.8828C88.6406 8.00391 86.3906 5.58984 83.0859 5.58984C79.7695 5.58984 77.5312 8.01562 77.5312 11.8828V11.9062C77.5312 15.7734 79.7578 18.2109 83.0859 18.2227ZM83.0977 16.8398C80.6953 16.8281 79.125 15 79.125 11.9062V11.8828C79.125 8.8125 80.707 6.97266 83.0859 6.97266C85.4648 6.97266 87.0586 8.80078 87.0586 11.8828V11.9062C87.0586 14.9883 85.4766 16.8398 83.0977 16.8398ZM90.8555 18H92.4023V13.2773L93.7617 12.0117L98.6367 18H100.465L94.875 11.0625L100.348 5.8125H98.4258L92.4492 11.5547H92.4023V1.08984H90.8555V18ZM105.715 18.2227C108.387 18.2227 110.32 16.7578 110.32 14.6836V14.6719C110.32 12.9609 109.395 12.0117 106.969 11.4258L105.129 10.9922C103.523 10.6055 102.867 9.98438 102.867 9.01172V9C102.867 7.75781 103.969 6.90234 105.621 6.90234C107.32 6.90234 108.398 7.82812 108.598 9.24609L108.609 9.32812H110.098L110.086 9.19922C109.887 7.10156 108.223 5.58984 105.621 5.58984C103.078 5.58984 101.285 7.03125 101.285 9.05859V9.07031C101.285 10.7578 102.387 11.7656 104.684 12.3164L106.523 12.7617C108.152 13.1484 108.738 13.7227 108.738 14.7773V14.7891C108.738 16.0664 107.566 16.9102 105.727 16.9102C103.887 16.9102 102.75 15.9961 102.504 14.5898L102.48 14.4844H100.934L100.945 14.5898C101.18 16.7461 102.949 18.2227 105.715 18.2227Z" fill="#4838D1"/>
<path d="M113.848 18.1875C114.797 18.1875 115.535 17.4375 115.535 16.4883C115.535 15.5508 114.797 14.8008 113.848 14.8008C112.898 14.8008 112.148 15.5508 112.148 16.4883C112.148 17.4375 112.898 18.1875 113.848 18.1875Z" fill="#F77A55"/>
<path d="M0.328125 18L-0.615947 17.6703L-1.08039 19H0.328125V18ZM4.04297 18V19H4.77891L4.99774 18.2973L4.04297 18ZM5.32031 13.8984V12.8984H4.58437L4.36554 13.6011L5.32031 13.8984ZM11.2969 13.8984L12.2516 13.6011L12.0328 12.8984H11.2969V13.8984ZM12.5742 18L11.6194 18.2973L11.8383 19H12.5742V18ZM16.2891 18V19H17.6967L17.2333 17.6708L16.2891 18ZM10.3945 1.08984L11.3388 0.760689L11.105 0.0898438H10.3945V1.08984ZM6.23438 1.08984V0.0898438H5.52441L5.2903 0.760105L6.23438 1.08984ZM8.27344 4.37109V3.37109H7.53653L7.31829 4.07495L8.27344 4.37109ZM8.34375 4.37109L9.29889 4.07495L9.08066 3.37109H8.34375V4.37109ZM10.4766 11.25V12.25H11.8336L11.4317 10.9539L10.4766 11.25ZM6.14062 11.25L5.18548 10.9539L4.78361 12.25H6.14062V11.25ZM0.328125 19H4.04297V17H0.328125V19ZM4.99774 18.2973L6.27508 14.1958L4.36554 13.6011L3.0882 17.7027L4.99774 18.2973ZM5.32031 14.8984H11.2969V12.8984H5.32031V14.8984ZM10.3421 14.1958L11.6194 18.2973L13.529 17.7027L12.2516 13.6011L10.3421 14.1958ZM12.5742 19H16.2891V17H12.5742V19ZM17.2333 17.6708L11.3388 0.760689L9.45026 1.419L15.3448 18.3292L17.2333 17.6708ZM10.3945 0.0898438H6.23438V2.08984H10.3945V0.0898438ZM5.2903 0.760105L-0.615947 17.6703L1.2722 18.3297L7.17845 1.41958L5.2903 0.760105ZM8.27344 5.37109H8.34375V3.37109H8.27344V5.37109ZM7.38861 4.66724L9.52142 11.5461L11.4317 10.9539L9.29889 4.07495L7.38861 4.66724ZM10.4766 10.25H6.14062V12.25H10.4766V10.25ZM7.09577 11.5461L9.22858 4.66724L7.31829 4.07495L5.18548 10.9539L7.09577 11.5461ZM25.418 15.9258V14.9258H24.7697L24.5051 15.5176L25.418 15.9258ZM25.4883 15.9258H26.4883V14.9258H25.4883V15.9258ZM25.4883 18H24.4883V19H25.4883V18ZM28.9102 18V19H29.9102V18H28.9102ZM28.9102 5.4375H29.9102V4.4375H28.9102V5.4375ZM25.4883 5.4375V4.4375H24.4883V5.4375H25.4883ZM20.6719 5.4375H21.6719V4.4375H20.6719V5.4375ZM17.25 5.4375V4.4375H16.25V5.4375H17.25ZM21.5859 19.2578C23.8571 19.2578 25.5167 18.1548 26.3309 16.334L24.5051 15.5176C24.0302 16.5796 23.1116 17.2578 21.5859 17.2578V19.2578ZM25.418 16.9258H25.4883V14.9258H25.418V16.9258ZM24.4883 15.9258V18H26.4883V15.9258H24.4883ZM25.4883 19H28.9102V17H25.4883V19ZM29.9102 18V5.4375H27.9102V18H29.9102ZM28.9102 4.4375H25.4883V6.4375H28.9102V4.4375ZM24.4883 5.4375V12.6562H26.4883V5.4375H24.4883ZM24.4883 12.6562C24.4883 13.2825 24.3042 13.72 24.0648 13.9876C23.8356 14.2437 23.4888 14.4219 22.9805 14.4219V16.4219C24.0073 16.4219 24.9144 16.0375 25.5554 15.321C26.1861 14.616 26.4883 13.6706 26.4883 12.6562H24.4883ZM22.9805 14.4219C22.4267 14.4219 22.1555 14.2587 22.0046 14.0855C21.8334 13.8889 21.6719 13.5116 21.6719 12.832H19.6719C19.6719 13.7931 19.897 14.7107 20.4964 15.3989C21.116 16.1104 21.9991 16.4219 22.9805 16.4219V14.4219ZM21.6719 12.832V5.4375H19.6719V12.832H21.6719ZM20.6719 4.4375H17.25V6.4375H20.6719V4.4375ZM16.25 5.4375V13.5469H18.25V5.4375H16.25ZM16.25 13.5469C16.25 15.1874 16.6889 16.6334 17.6418 17.679C18.6066 18.7376 19.982 19.2578 21.5859 19.2578V17.2578C20.4242 17.2578 19.6317 16.8932 19.12 16.3318C18.5963 15.7572 18.25 14.8478 18.25 13.5469H16.25ZM39.6562 15.8555V14.8555H39.009L38.7439 15.446L39.6562 15.8555ZM39.7266 15.8555H40.7266V14.8555H39.7266V15.8555ZM39.7266 18H38.7266V19H39.7266V18ZM43.1484 18V19H44.1484V18H43.1484ZM43.1484 1.08984H44.1484V0.0898438H43.1484V1.08984ZM39.7266 1.08984V0.0898438H38.7266V1.08984H39.7266ZM39.7266 7.61719V8.61719H40.7266V7.61719H39.7266ZM39.6562 7.61719L38.743 8.02463L39.0074 8.61719H39.6562V7.61719ZM35.7891 19.2578C37.9816 19.2578 39.7322 18.1284 40.5686 16.2649L38.7439 15.446C38.2444 16.5591 37.2293 17.2578 35.7891 17.2578V19.2578ZM39.6562 16.8555H39.7266V14.8555H39.6562V16.8555ZM38.7266 15.8555V18H40.7266V15.8555H38.7266ZM39.7266 19H43.1484V17H39.7266V19ZM44.1484 18V1.08984H42.1484V18H44.1484ZM43.1484 0.0898438H39.7266V2.08984H43.1484V0.0898438ZM38.7266 1.08984V7.61719H40.7266V1.08984H38.7266ZM39.7266 6.61719H39.6562V8.61719H39.7266V6.61719ZM40.5695 7.20975C39.7229 5.31231 37.9499 4.17969 35.7891 4.17969V6.17969C37.1907 6.17969 38.2302 6.87519 38.743 8.02463L40.5695 7.20975ZM35.7891 4.17969C33.9243 4.17969 32.3477 4.91156 31.262 6.29126C30.1991 7.64195 29.6797 9.5175 29.6797 11.707H31.6797C31.6797 9.80672 32.1329 8.41859 32.8337 7.52808C33.5117 6.66657 34.4898 6.17969 35.7891 6.17969V4.17969ZM29.6797 11.707V11.7188H31.6797V11.707H29.6797ZM29.6797 11.7188C29.6797 13.903 30.1994 15.7803 31.2608 17.1345C32.345 18.5176 33.9211 19.2578 35.7891 19.2578V17.2578C34.493 17.2578 33.5144 16.7676 32.8349 15.9007C32.1327 15.0048 31.6797 13.6126 31.6797 11.7188H29.6797ZM36.9375 14.4219C36.3911 14.4219 35.9953 14.2111 35.707 13.827C35.3955 13.4119 35.1602 12.7202 35.1602 11.7188H33.1602C33.1602 13.0024 33.4581 14.1624 34.1074 15.0275C34.7801 15.9237 35.7729 16.4219 36.9375 16.4219V14.4219ZM35.1602 11.7188V11.707H33.1602V11.7188H35.1602ZM35.1602 11.707C35.1602 10.701 35.3978 10.014 35.7085 9.60411C35.9965 9.22416 36.3927 9.01562 36.9375 9.01562V7.01562C35.7831 7.01562 34.7906 7.50435 34.1147 8.39589C33.4616 9.25745 33.1602 10.4162 33.1602 11.707H35.1602ZM36.9375 9.01562C37.446 9.01562 37.8566 9.22309 38.1656 9.62386C38.491 10.0457 38.7383 10.7354 38.7383 11.707H40.7383C40.7383 10.417 40.4114 9.26094 39.7494 8.40251C39.0712 7.523 38.0814 7.01562 36.9375 7.01562V9.01562ZM38.7383 11.707V11.7188H40.7383V11.707H38.7383ZM38.7383 11.7188C38.7383 12.6996 38.4923 13.3921 38.1685 13.8142C37.8622 14.2135 37.4531 14.4219 36.9375 14.4219V16.4219C38.086 16.4219 39.0773 15.9154 39.7553 15.0315C40.4159 14.1704 40.7383 13.0113 40.7383 11.7188H38.7383ZM45.5039 18H44.5039V19H45.5039V18ZM48.9258 18V19H49.9258V18H48.9258ZM48.9258 5.4375H49.9258V4.4375H48.9258V5.4375ZM45.5039 5.4375V4.4375H44.5039V5.4375H45.5039ZM47.2148 4.82031C48.7856 4.82031 50.043 3.57667 50.043 2.03906H48.043C48.043 2.44677 47.7066 2.82031 47.2148 2.82031V4.82031ZM50.043 2.03906C50.043 0.501453 48.7856 -0.742188 47.2148 -0.742188V1.25781C47.7066 1.25781 48.043 1.63136 48.043 2.03906H50.043ZM47.2148 -0.742188C45.6441 -0.742188 44.3867 0.501453 44.3867 2.03906H46.3867C46.3867 1.63136 46.7231 1.25781 47.2148 1.25781V-0.742188ZM44.3867 2.03906C44.3867 3.57667 45.6441 4.82031 47.2148 4.82031V2.82031C46.7231 2.82031 46.3867 2.44677 46.3867 2.03906H44.3867ZM45.5039 19H48.9258V17H45.5039V19ZM49.9258 18V5.4375H47.9258V18H49.9258ZM48.9258 4.4375H45.5039V6.4375H48.9258V4.4375ZM44.5039 5.4375V18H46.5039V5.4375H44.5039ZM51.6914 18H50.6914V19H51.6914V18ZM59.4609 9.14062H58.4609V10.0299L59.3441 10.1338L59.4609 9.14062ZM59.4609 9.10547L59.3005 8.11842L58.4609 8.25485V9.10547H59.4609ZM51.6914 1.08984V0.0898438H50.6914V1.08984H51.6914ZM53.2852 8.60156H52.2852V9.60156H53.2852V8.60156ZM53.2852 2.50781V1.50781H52.2852V2.50781H53.2852ZM53.2852 16.582H52.2852V17.582H53.2852V16.582ZM53.2852 9.98438V8.98438H52.2852V9.98438H53.2852ZM51.6914 19H57.7031V17H51.6914V19ZM57.7031 19C59.7194 19 61.4271 18.5288 62.6503 17.5398C63.9021 16.5275 64.5273 15.0681 64.5273 13.3711H62.5273C62.5273 14.5452 62.1155 15.4002 61.3927 15.9846C60.6413 16.5923 59.4368 17 57.7031 17V19ZM64.5273 13.3711V13.3477H62.5273V13.3711H64.5273ZM64.5273 13.3477C64.5273 10.416 62.3744 8.47649 59.5778 8.14747L59.3441 10.1338C61.3287 10.3673 62.5273 11.6152 62.5273 13.3477H64.5273ZM60.4609 9.14062V9.10547H58.4609V9.14062H60.4609ZM59.6213 10.0925C62.0089 9.70454 63.6484 7.60933 63.6484 5.28516H61.6484C61.6484 6.68754 60.663 7.89702 59.3005 8.11842L59.6213 10.0925ZM63.6484 5.28516V5.26172H61.6484V5.28516H63.6484ZM63.6484 5.26172C63.6484 3.73266 63.0396 2.40628 61.9449 1.4773C60.8649 0.560726 59.385 0.0898438 57.7148 0.0898438V2.08984C59.0212 2.08984 60.0082 2.45685 60.6508 3.0022C61.2788 3.53513 61.6484 4.29468 61.6484 5.26172H63.6484ZM57.7148 0.0898438H51.6914V2.08984H57.7148V0.0898438ZM50.6914 1.08984V18H52.6914V1.08984H50.6914ZM57.375 3.50781C58.3796 3.50781 59.0467 3.74749 59.4413 4.0619C59.8068 4.3531 60.0312 4.77922 60.0312 5.41406H62.0312C62.0312 4.23249 61.576 3.2055 60.6876 2.49767C59.8283 1.81306 58.6673 1.50781 57.375 1.50781V3.50781ZM60.0312 5.41406V5.4375H62.0312V5.41406H60.0312ZM60.0312 5.4375C60.0312 6.1556 59.7714 6.64219 59.3342 6.97758C58.8621 7.33975 58.079 7.60156 56.9297 7.60156V9.60156C58.3468 9.60156 59.6145 9.2833 60.5515 8.56442C61.5235 7.81874 62.0312 6.72331 62.0312 5.4375H60.0312ZM56.9297 7.60156H53.2852V9.60156H56.9297V7.60156ZM54.2852 8.60156V2.50781H52.2852V8.60156H54.2852ZM53.2852 3.50781H57.375V1.50781H53.2852V3.50781ZM57.3398 10.9844C58.6588 10.9844 59.5601 11.2594 60.105 11.6524C60.6048 12.0129 60.8867 12.5278 60.8867 13.2891H62.8867C62.8867 11.9293 62.3308 10.7918 61.2749 10.0303C60.2641 9.30118 58.892 8.98438 57.3398 8.98438V10.9844ZM60.8867 13.2891V13.3125H62.8867V13.2891H60.8867ZM60.8867 13.3125C60.8867 14.0847 60.6252 14.5862 60.174 14.928C59.6787 15.3031 58.8254 15.582 57.4805 15.582V17.582C59.0536 17.582 60.4033 17.2633 61.3816 16.5222C62.4041 15.7478 62.8867 14.6145 62.8867 13.3125H60.8867ZM57.4805 15.582H53.2852V17.582H57.4805V15.582ZM54.2852 16.582V9.98438H52.2852V16.582H54.2852ZM53.2852 10.9844H57.3398V8.98438H53.2852V10.9844ZM70.5234 18.2227L70.5199 19.2227H70.5234V18.2227ZM70.5352 16.8398L70.5303 17.8398H70.5352V16.8398ZM70.5234 19.2227C72.4407 19.2227 74.1106 18.5103 75.2913 17.184C76.4625 15.8684 77.0781 14.0345 77.0781 11.9062H75.0781C75.0781 13.657 74.5746 14.9812 73.7975 15.8541C73.03 16.7163 71.9226 17.2227 70.5234 17.2227V19.2227ZM77.0781 11.9062V11.8828H75.0781V11.9062H77.0781ZM77.0781 11.8828C77.0781 9.75311 76.4586 7.92396 75.2847 6.61427C74.1018 5.29467 72.4325 4.58984 70.5234 4.58984V6.58984C71.919 6.58984 73.0271 7.09205 73.7954 7.94921C74.5726 8.81627 75.0781 10.1336 75.0781 11.8828H77.0781ZM70.5234 4.58984C68.6078 4.58984 66.9381 5.29814 65.7569 6.61972C64.5849 7.93091 63.9688 9.75967 63.9688 11.8828H65.9688C65.9688 10.1388 66.4717 8.82104 67.248 7.95255C68.015 7.09444 69.1227 6.58984 70.5234 6.58984V4.58984ZM63.9688 11.8828V11.9062H65.9688V11.8828H63.9688ZM63.9688 11.9062C63.9688 14.0282 64.5812 15.859 65.7506 17.1746C66.9296 18.501 68.5987 19.2159 70.5199 19.2227L70.527 17.2227C69.1201 17.2177 68.0118 16.708 67.2455 15.8459C66.4696 14.973 65.9688 13.6515 65.9688 11.9062H63.9688ZM70.54 15.8399C69.6123 15.8353 68.9103 15.4914 68.4213 14.8948C67.9149 14.2771 67.5625 13.294 67.5625 11.9062H65.5625C65.5625 13.6123 65.9952 15.0901 66.8746 16.1628C67.7713 17.2567 69.0557 17.8326 70.5303 17.8398L70.54 15.8399ZM67.5625 11.9062V11.8828H65.5625V11.9062H67.5625ZM67.5625 11.8828C67.5625 10.5099 67.9163 9.52885 68.4237 8.91099C68.9143 8.31352 69.6134 7.97266 70.5234 7.97266V5.97266C69.0546 5.97266 67.7732 6.55171 66.8781 7.64174C65.9997 8.71139 65.5625 10.1854 65.5625 11.8828H67.5625ZM70.5234 7.97266C71.436 7.97266 72.1383 8.31252 72.6309 8.90885C73.1398 9.52492 73.4961 10.505 73.4961 11.8828H75.4961C75.4961 10.1786 75.0555 8.7036 74.1728 7.63509C73.2738 6.54685 71.9898 5.97266 70.5234 5.97266V7.97266ZM73.4961 11.8828V11.9062H75.4961V11.8828H73.4961ZM73.4961 11.9062C73.4961 13.2858 73.1418 14.2737 72.6333 14.8962C72.1418 15.4978 71.443 15.8398 70.5352 15.8398V17.8398C72.0063 17.8398 73.2879 17.2561 74.1821 16.1615C75.0594 15.0877 75.4961 13.6087 75.4961 11.9062H73.4961ZM83.0859 18.2227L83.0824 19.2227H83.0859V18.2227ZM83.0977 16.8398L83.0928 17.8398H83.0977V16.8398ZM83.0859 19.2227C85.0032 19.2227 86.6731 18.5103 87.8538 17.184C89.025 15.8684 89.6406 14.0345 89.6406 11.9062H87.6406C87.6406 13.657 87.1371 14.9812 86.36 15.8541C85.5925 16.7163 84.4851 17.2227 83.0859 17.2227V19.2227ZM89.6406 11.9062V11.8828H87.6406V11.9062H89.6406ZM89.6406 11.8828C89.6406 9.75311 89.0211 7.92396 87.8472 6.61427C86.6643 5.29467 84.995 4.58984 83.0859 4.58984V6.58984C84.4815 6.58984 85.5896 7.09205 86.3579 7.94921C87.1351 8.81627 87.6406 10.1336 87.6406 11.8828H89.6406ZM83.0859 4.58984C81.1703 4.58984 79.5006 5.29814 78.3194 6.61972C77.1474 7.93091 76.5312 9.75967 76.5312 11.8828H78.5312C78.5312 10.1388 79.0342 8.82104 79.8105 7.95255C80.5775 7.09444 81.6852 6.58984 83.0859 6.58984V4.58984ZM76.5312 11.8828V11.9062H78.5312V11.8828H76.5312ZM76.5312 11.9062C76.5312 14.0282 77.1437 15.859 78.3131 17.1746C79.4921 18.501 81.1612 19.2159 83.0824 19.2227L83.0895 17.2227C81.6826 17.2177 80.5743 16.708 79.808 15.8459C79.0321 14.973 78.5312 13.6515 78.5312 11.9062H76.5312ZM83.1025 15.8399C82.1748 15.8353 81.4728 15.4914 80.9838 14.8948C80.4774 14.2771 80.125 13.294 80.125 11.9062H78.125C78.125 13.6123 78.5577 15.0901 79.4371 16.1628C80.3338 17.2567 81.6182 17.8326 83.0928 17.8398L83.1025 15.8399ZM80.125 11.9062V11.8828H78.125V11.9062H80.125ZM80.125 11.8828C80.125 10.5099 80.4788 9.52885 80.9862 8.91099C81.4768 8.31352 82.1759 7.97266 83.0859 7.97266V5.97266C81.6171 5.97266 80.3357 6.55171 79.4406 7.64174C78.5622 8.71139 78.125 10.1854 78.125 11.8828H80.125ZM83.0859 7.97266C83.9985 7.97266 84.7008 8.31252 85.1934 8.90885C85.7023 9.52492 86.0586 10.505 86.0586 11.8828H88.0586C88.0586 10.1786 87.618 8.7036 86.7353 7.63509C85.8363 6.54685 84.5523 5.97266 83.0859 5.97266V7.97266ZM86.0586 11.8828V11.9062H88.0586V11.8828H86.0586ZM86.0586 11.9062C86.0586 13.2858 85.7043 14.2737 85.1958 14.8962C84.7043 15.4978 84.0055 15.8398 83.0977 15.8398V17.8398C84.5688 17.8398 85.8504 17.2561 86.7446 16.1615C87.6219 15.0877 88.0586 13.6087 88.0586 11.9062H86.0586ZM90.8555 18H89.8555V19H90.8555V18ZM92.4023 18V19H93.4023V18H92.4023ZM92.4023 13.2773L91.7209 12.5454L91.4023 12.8421V13.2773H92.4023ZM93.7617 12.0117L94.5372 11.3804L93.8625 10.5516L93.0803 11.2798L93.7617 12.0117ZM98.6367 18L97.8612 18.6313L98.1613 19H98.6367V18ZM100.465 18V19H102.555L101.244 17.3726L100.465 18ZM94.875 11.0625L94.1827 10.3409L93.5209 10.9758L94.0963 11.6899L94.875 11.0625ZM100.348 5.8125L101.04 6.53413L102.835 4.8125H100.348V5.8125ZM98.4258 5.8125V4.8125H98.0232L97.733 5.0914L98.4258 5.8125ZM92.4492 11.5547V12.5547H92.8518L93.142 12.2758L92.4492 11.5547ZM92.4023 11.5547H91.4023V12.5547H92.4023V11.5547ZM92.4023 1.08984H93.4023V0.0898438H92.4023V1.08984ZM90.8555 1.08984V0.0898438H89.8555V1.08984H90.8555ZM90.8555 19H92.4023V17H90.8555V19ZM93.4023 18V13.2773H91.4023V18H93.4023ZM93.0838 14.0092L94.4431 12.7436L93.0803 11.2798L91.7209 12.5454L93.0838 14.0092ZM92.9862 12.6431L97.8612 18.6313L99.4122 17.3687L94.5372 11.3804L92.9862 12.6431ZM98.6367 19H100.465V17H98.6367V19ZM101.244 17.3726L95.6537 10.4351L94.0963 11.6899L99.6862 18.6274L101.244 17.3726ZM95.5673 11.7841L101.04 6.53413L99.6554 5.09087L94.1827 10.3409L95.5673 11.7841ZM100.348 4.8125H98.4258V6.8125H100.348V4.8125ZM97.733 5.0914L91.7564 10.8336L93.142 12.2758L99.1186 6.5336L97.733 5.0914ZM92.4492 10.5547H92.4023V12.5547H92.4492V10.5547ZM93.4023 11.5547V1.08984H91.4023V11.5547H93.4023ZM92.4023 0.0898438H90.8555V2.08984H92.4023V0.0898438ZM89.8555 1.08984V18H91.8555V1.08984H89.8555ZM106.969 11.4258L107.204 10.4537L107.198 10.4524L106.969 11.4258ZM105.129 10.9922L104.895 11.9644L104.9 11.9655L105.129 10.9922ZM108.598 9.24609L107.607 9.38522L107.608 9.38752L108.598 9.24609ZM108.609 9.32812L107.619 9.46955L107.742 10.3281H108.609V9.32812ZM110.098 9.32812V10.3281H111.193L111.094 9.23759L110.098 9.32812ZM110.086 9.19922L111.082 9.10868L111.081 9.10467L110.086 9.19922ZM104.684 12.3164L104.919 11.3445L104.917 11.344L104.684 12.3164ZM106.523 12.7617L106.288 13.7337L106.292 13.7347L106.523 12.7617ZM102.504 14.5898L103.489 14.4175L103.485 14.3951L103.48 14.3729L102.504 14.5898ZM102.48 14.4844L103.457 14.2674L103.283 13.4844H102.48V14.4844ZM100.934 14.4844V13.4844H99.8163L99.9397 14.5948L100.934 14.4844ZM100.945 14.5898L101.939 14.4818L101.939 14.4794L100.945 14.5898ZM105.715 19.2227C108.674 19.2227 111.32 17.5422 111.32 14.6836H109.32C109.32 15.9734 108.099 17.2227 105.715 17.2227V19.2227ZM111.32 14.6836V14.6719H109.32V14.6836H111.32ZM111.32 14.6719C111.32 13.6161 111.025 12.6685 110.254 11.913C109.528 11.201 108.481 10.7624 107.204 10.4537L106.734 12.3978C107.882 12.6751 108.511 13.0041 108.854 13.3409C109.153 13.6343 109.32 14.0167 109.32 14.6719H111.32ZM107.198 10.4524L105.358 10.0189L104.9 11.9655L106.739 12.3991L107.198 10.4524ZM105.363 10.02C104.625 9.84213 104.246 9.64 104.061 9.47526C103.925 9.35375 103.867 9.23457 103.867 9.01172H101.867C101.867 9.76153 102.137 10.4392 102.731 10.9681C103.275 11.4538 104.028 11.7555 104.895 11.9644L105.363 10.02ZM103.867 9.01172V9H101.867V9.01172H103.867ZM103.867 9C103.867 8.70515 103.986 8.46848 104.233 8.27923C104.5 8.07471 104.958 7.90234 105.621 7.90234V5.90234C104.632 5.90234 103.713 6.15771 103.016 6.69147C102.3 7.2405 101.867 8.05266 101.867 9H103.867ZM105.621 7.90234C106.289 7.90234 106.749 8.08261 107.044 8.32093C107.334 8.55461 107.539 8.90181 107.607 9.38522L109.588 9.10696C109.457 8.17241 109.023 7.34773 108.3 6.76403C107.581 6.18497 106.652 5.90234 105.621 5.90234V7.90234ZM107.608 9.38752L107.619 9.46955L109.599 9.1867L109.588 9.10467L107.608 9.38752ZM108.609 10.3281H110.098V8.32812H108.609V10.3281ZM111.094 9.23759L111.082 9.10868L109.09 9.28975L109.102 9.41866L111.094 9.23759ZM111.081 9.10467C110.958 7.80754 110.374 6.65827 109.396 5.84053C108.421 5.02637 107.116 4.58984 105.621 4.58984V6.58984C106.727 6.58984 107.555 6.90917 108.113 7.37529C108.667 7.83782 109.014 8.49324 109.09 9.29377L111.081 9.10467ZM105.621 4.58984C102.744 4.58984 100.285 6.28343 100.285 9.05859H102.285C102.285 7.77907 103.412 6.58984 105.621 6.58984V4.58984ZM100.285 9.05859V9.07031H102.285V9.05859H100.285ZM100.285 9.07031C100.285 10.1614 100.655 11.1075 101.436 11.8463C102.18 12.5494 103.223 12.9945 104.45 13.2888L104.917 11.344C103.848 11.0876 103.191 10.7534 102.81 10.3929C102.467 10.0683 102.285 9.66677 102.285 9.07031H100.285ZM104.448 13.2883L106.288 13.7337L106.759 11.7898L104.919 11.3445L104.448 13.2883ZM106.292 13.7347C107.056 13.916 107.405 14.107 107.563 14.2533C107.664 14.3466 107.738 14.4619 107.738 14.7773H109.738C109.738 14.0381 109.52 13.3389 108.921 12.7848C108.379 12.2836 107.62 11.9942 106.754 11.7888L106.292 13.7347ZM107.738 14.7773V14.7891H109.738V14.7773H107.738ZM107.738 14.7891C107.738 15.0817 107.621 15.3167 107.344 15.5127C107.039 15.7292 106.508 15.9102 105.727 15.9102V17.9102C106.785 17.9102 107.76 17.6692 108.501 17.1445C109.27 16.5993 109.738 15.7737 109.738 14.7891H107.738ZM105.727 15.9102C104.969 15.9102 104.448 15.7227 104.113 15.4742C103.789 15.2334 103.571 14.8867 103.489 14.4175L101.519 14.7622C101.683 15.6993 102.157 16.5127 102.922 17.0804C103.677 17.6406 104.644 17.9102 105.727 17.9102V15.9102ZM103.48 14.3729L103.457 14.2674L101.504 14.7013L101.528 14.8068L103.48 14.3729ZM102.48 13.4844H100.934V15.4844H102.48V13.4844ZM99.9397 14.5948L99.9514 14.7003L101.939 14.4794L101.927 14.3739L99.9397 14.5948ZM99.9512 14.6979C100.097 16.035 100.728 17.1921 101.765 18.0028C102.793 18.8059 104.157 19.2227 105.715 19.2227V17.2227C104.507 17.2227 103.604 16.9011 102.997 16.4269C102.399 15.9602 102.028 15.3009 101.939 14.4818L99.9512 14.6979ZM113.848 19.1875C115.358 19.1875 116.535 17.9807 116.535 16.4883H114.535C114.535 16.8943 114.236 17.1875 113.848 17.1875V19.1875ZM116.535 16.4883C116.535 15.003 115.354 13.8008 113.848 13.8008V15.8008C114.24 15.8008 114.535 16.0985 114.535 16.4883H116.535ZM113.848 13.8008C112.351 13.8008 111.148 14.994 111.148 16.4883H113.148C113.148 16.1076 113.446 15.8008 113.848 15.8008V13.8008ZM111.148 16.4883C111.148 17.9898 112.346 19.1875 113.848 19.1875V17.1875C113.451 17.1875 113.148 16.8852 113.148 16.4883H111.148Z" fill="black" mask="url(#path-1-outside-1_3027_1036)"/>
</svg>
