<svg width="304" height="43" viewBox="0 0 304 43" fill="none" xmlns="http://www.w3.org/2000/svg">
<path fill-rule="evenodd" clip-rule="evenodd" d="M28.9857 2H23.0143C19.9091 2 18 3.49929 18 6.43434V20.3309C18.0045 20.613 18.0704 20.8782 18.1926 21.1174L18.2863 21.2719L18.3843 21.3975C18.8954 21.9969 19.7112 22.1624 20.3844 21.8037L25.974 18.6635L31.5863 21.7971C31.8368 21.9291 32.0965 21.9957 32.3608 22C32.8038 22.0001 33.2179 21.8242 33.5232 21.5112C33.8285 21.1982 34 20.7736 34 20.3309V6.25765C34 3.43503 32.0482 2 28.9857 2ZM23.0143 3.44775H28.9857C31.35 3.44775 32.5879 4.35788 32.5879 6.25765V20.3309C32.5879 20.3897 32.5652 20.446 32.5247 20.4875C32.4842 20.529 32.4293 20.5523 32.372 20.5523C32.3355 20.5517 32.2887 20.5397 32.2463 20.5173L26.6435 17.3894C26.225 17.1576 25.7233 17.1576 25.3068 17.3883L19.7196 20.5265C19.6349 20.5715 19.5137 20.5421 19.4492 20.4519L19.4117 20.3897C19.4189 20.4 19.4176 20.3876 19.4154 20.3662C19.414 20.3528 19.4122 20.3359 19.412 20.3189L19.412 6.43434C19.412 4.39579 20.6193 3.44775 23.0143 3.44775ZM30.1139 9.0405C30.1139 8.64072 29.7978 8.31663 29.4079 8.31663H22.5404L22.4446 8.32324C22.1 8.37117 21.8344 8.67404 21.8344 9.0405C21.8344 9.44029 22.1505 9.76438 22.5404 9.76438H29.4079L29.5037 9.75777C29.8483 9.70984 30.1139 9.40697 30.1139 9.0405Z" fill="#2E2E5D"/>
<path d="M5.25512 35.41C5.50845 35.45 5.73845 35.5533 5.94512 35.72C6.15845 35.8867 6.32512 36.0933 6.44512 36.34C6.57178 36.5867 6.63512 36.85 6.63512 37.13C6.63512 37.4833 6.54512 37.8033 6.36512 38.09C6.18512 38.37 5.92178 38.5933 5.57512 38.76C5.23512 38.92 4.83178 39 4.36512 39H1.76512V32.03H4.26512C4.73845 32.03 5.14178 32.11 5.47512 32.27C5.80845 32.4233 6.05845 32.6333 6.22512 32.9C6.39178 33.1667 6.47512 33.4667 6.47512 33.8C6.47512 34.2133 6.36178 34.5567 6.13512 34.83C5.91512 35.0967 5.62178 35.29 5.25512 35.41ZM2.67512 35.04H4.20512C4.63178 35.04 4.96178 34.94 5.19512 34.74C5.42845 34.54 5.54512 34.2633 5.54512 33.91C5.54512 33.5567 5.42845 33.28 5.19512 33.08C4.96178 32.88 4.62512 32.78 4.18512 32.78H2.67512V35.04ZM4.28512 38.25C4.73845 38.25 5.09178 38.1433 5.34512 37.93C5.59845 37.7167 5.72512 37.42 5.72512 37.04C5.72512 36.6533 5.59178 36.35 5.32512 36.13C5.05845 35.9033 4.70178 35.79 4.25512 35.79H2.67512V38.25H4.28512ZM10.2879 39.09C9.7746 39.09 9.30793 38.9733 8.88793 38.74C8.4746 38.5067 8.14793 38.1767 7.90793 37.75C7.6746 37.3167 7.55793 36.8167 7.55793 36.25C7.55793 35.69 7.67793 35.1967 7.91793 34.77C8.1646 34.3367 8.49793 34.0067 8.91793 33.78C9.33793 33.5467 9.80793 33.43 10.3279 33.43C10.8479 33.43 11.3179 33.5467 11.7379 33.78C12.1579 34.0067 12.4879 34.3333 12.7279 34.76C12.9746 35.1867 13.0979 35.6833 13.0979 36.25C13.0979 36.8167 12.9713 37.3167 12.7179 37.75C12.4713 38.1767 12.1346 38.5067 11.7079 38.74C11.2813 38.9733 10.8079 39.09 10.2879 39.09ZM10.2879 38.29C10.6146 38.29 10.9213 38.2133 11.2079 38.06C11.4946 37.9067 11.7246 37.6767 11.8979 37.37C12.0779 37.0633 12.1679 36.69 12.1679 36.25C12.1679 35.81 12.0813 35.4367 11.9079 35.13C11.7346 34.8233 11.5079 34.5967 11.2279 34.45C10.9479 34.2967 10.6446 34.22 10.3179 34.22C9.9846 34.22 9.67793 34.2967 9.39793 34.45C9.1246 34.5967 8.9046 34.8233 8.73793 35.13C8.57126 35.4367 8.48793 35.81 8.48793 36.25C8.48793 36.6967 8.56793 37.0733 8.72793 37.38C8.8946 37.6867 9.1146 37.9167 9.38793 38.07C9.66126 38.2167 9.96126 38.29 10.2879 38.29ZM16.6844 39.09C16.1711 39.09 15.7044 38.9733 15.2844 38.74C14.8711 38.5067 14.5444 38.1767 14.3044 37.75C14.0711 37.3167 13.9544 36.8167 13.9544 36.25C13.9544 35.69 14.0744 35.1967 14.3144 34.77C14.5611 34.3367 14.8944 34.0067 15.3144 33.78C15.7344 33.5467 16.2044 33.43 16.7244 33.43C17.2444 33.43 17.7144 33.5467 18.1344 33.78C18.5544 34.0067 18.8844 34.3333 19.1244 34.76C19.3711 35.1867 19.4944 35.6833 19.4944 36.25C19.4944 36.8167 19.3677 37.3167 19.1144 37.75C18.8677 38.1767 18.5311 38.5067 18.1044 38.74C17.6777 38.9733 17.2044 39.09 16.6844 39.09ZM16.6844 38.29C17.0111 38.29 17.3177 38.2133 17.6044 38.06C17.8911 37.9067 18.1211 37.6767 18.2944 37.37C18.4744 37.0633 18.5644 36.69 18.5644 36.25C18.5644 35.81 18.4777 35.4367 18.3044 35.13C18.1311 34.8233 17.9044 34.5967 17.6244 34.45C17.3444 34.2967 17.0411 34.22 16.7144 34.22C16.3811 34.22 16.0744 34.2967 15.7944 34.45C15.5211 34.5967 15.3011 34.8233 15.1344 35.13C14.9677 35.4367 14.8844 35.81 14.8844 36.25C14.8844 36.6967 14.9644 37.0733 15.1244 37.38C15.2911 37.6867 15.5111 37.9167 15.7844 38.07C16.0577 38.2167 16.3577 38.29 16.6844 38.29ZM23.7509 39L21.6009 36.58V39H20.6909V31.6H21.6009V35.95L23.7109 33.52H24.9809L22.4009 36.25L24.9909 39H23.7509ZM32.4274 33.42C32.854 33.42 33.234 33.51 33.5674 33.69C33.9007 33.8633 34.164 34.1267 34.3574 34.48C34.5507 34.8333 34.6474 35.2633 34.6474 35.77V39H33.7474V35.9C33.7474 35.3533 33.6107 34.9367 33.3374 34.65C33.0707 34.3567 32.7074 34.21 32.2474 34.21C31.774 34.21 31.3974 34.3633 31.1174 34.67C30.8374 34.97 30.6974 35.4067 30.6974 35.98V39H29.7974V35.9C29.7974 35.3533 29.6607 34.9367 29.3874 34.65C29.1207 34.3567 28.7574 34.21 28.2974 34.21C27.824 34.21 27.4474 34.3633 27.1674 34.67C26.8874 34.97 26.7474 35.4067 26.7474 35.98V39H25.8374V33.52H26.7474V34.31C26.9274 34.0233 27.1674 33.8033 27.4674 33.65C27.774 33.4967 28.1107 33.42 28.4774 33.42C28.9374 33.42 29.344 33.5233 29.6974 33.73C30.0507 33.9367 30.314 34.24 30.4874 34.64C30.6407 34.2533 30.894 33.9533 31.2474 33.74C31.6007 33.5267 31.994 33.42 32.4274 33.42ZM35.8001 36.24C35.8001 35.68 35.9135 35.19 36.1401 34.77C36.3668 34.3433 36.6768 34.0133 37.0701 33.78C37.4701 33.5467 37.9135 33.43 38.4001 33.43C38.8801 33.43 39.2968 33.5333 39.6501 33.74C40.0035 33.9467 40.2668 34.2067 40.4401 34.52V33.52H41.3601V39H40.4401V37.98C40.2601 38.3 39.9901 38.5667 39.6301 38.78C39.2768 38.9867 38.8635 39.09 38.3901 39.09C37.9035 39.09 37.4635 38.97 37.0701 38.73C36.6768 38.49 36.3668 38.1533 36.1401 37.72C35.9135 37.2867 35.8001 36.7933 35.8001 36.24ZM40.4401 36.25C40.4401 35.8367 40.3568 35.4767 40.1901 35.17C40.0235 34.8633 39.7968 34.63 39.5101 34.47C39.2301 34.3033 38.9201 34.22 38.5801 34.22C38.2401 34.22 37.9301 34.3 37.6501 34.46C37.3701 34.62 37.1468 34.8533 36.9801 35.16C36.8135 35.4667 36.7301 35.8267 36.7301 36.24C36.7301 36.66 36.8135 37.0267 36.9801 37.34C37.1468 37.6467 37.3701 37.8833 37.6501 38.05C37.9301 38.21 38.2401 38.29 38.5801 38.29C38.9201 38.29 39.2301 38.21 39.5101 38.05C39.7968 37.8833 40.0235 37.6467 40.1901 37.34C40.3568 37.0267 40.4401 36.6633 40.4401 36.25ZM43.8079 34.41C43.9679 34.0967 44.1946 33.8533 44.4879 33.68C44.7879 33.5067 45.1513 33.42 45.5779 33.42V34.36H45.3379C44.3179 34.36 43.8079 34.9133 43.8079 36.02V39H42.8979V33.52H43.8079V34.41ZM49.6884 39L47.5384 36.58V39H46.6284V31.6H47.5384V35.95L49.6484 33.52H50.9184L48.3384 36.25L50.9284 39H49.6884Z" fill="#2E2E5D"/>
<path fill-rule="evenodd" clip-rule="evenodd" d="M112.607 2.0117C112.564 2.00401 112.519 2 112.474 2C112.429 2 112.384 2.00401 112.341 2.0117H106.084C103.596 2.0117 101.5 4.02953 101.5 6.4907V17.2037C101.5 19.8043 103.504 21.8647 106.084 21.8647H114.073C116.526 21.8647 118.552 19.7028 118.552 17.2037V8.0377C118.552 7.84408 118.477 7.65797 118.343 7.5183L113.278 2.2423C113.136 2.09498 112.941 2.0117 112.737 2.0117H112.607ZM111.724 3.5109L106.084 3.5117C104.412 3.5117 103 4.8711 103 6.4907V17.2037C103 18.9849 104.342 20.3647 106.084 20.3647H114.073C115.675 20.3647 117.052 18.8954 117.052 17.2037L117.051 8.98309L116.176 8.98607C115.842 8.98566 115.462 8.98496 115.04 8.984C113.271 8.98026 111.827 7.59329 111.729 5.84739L111.724 5.659V3.5109ZM116.23 7.48384L115.044 7.484C114.038 7.48188 113.224 6.66546 113.224 5.659V4.35245L116.23 7.48384ZM112.284 14.8076C112.698 14.8076 113.034 15.1434 113.034 15.5576C113.034 15.9373 112.752 16.2511 112.386 16.3008L112.284 16.3076H106.887C106.473 16.3076 106.137 15.9718 106.137 15.5576C106.137 15.1779 106.419 14.8641 106.785 14.8144L106.887 14.8076H112.284ZM110.992 10.6054C110.992 10.1912 110.657 9.8554 110.242 9.8554H106.886L106.785 9.86225C106.419 9.91191 106.136 10.2257 106.136 10.6054C106.136 11.0196 106.472 11.3554 106.886 11.3554H110.242L110.344 11.3486C110.71 11.2989 110.992 10.9851 110.992 10.6054Z" fill="#2E2E5D"/>
<path d="M85.6155 35.51C85.6155 34.83 85.7689 34.22 86.0755 33.68C86.3822 33.1333 86.7989 32.7067 87.3255 32.4C87.8589 32.0933 88.4489 31.94 89.0955 31.94C89.8555 31.94 90.5189 32.1233 91.0855 32.49C91.6522 32.8567 92.0655 33.3767 92.3255 34.05H91.2355C91.0422 33.63 90.7622 33.3067 90.3955 33.08C90.0355 32.8533 89.6022 32.74 89.0955 32.74C88.6089 32.74 88.1722 32.8533 87.7855 33.08C87.3989 33.3067 87.0955 33.63 86.8755 34.05C86.6555 34.4633 86.5455 34.95 86.5455 35.51C86.5455 36.0633 86.6555 36.55 86.8755 36.97C87.0955 37.3833 87.3989 37.7033 87.7855 37.93C88.1722 38.1567 88.6089 38.27 89.0955 38.27C89.6022 38.27 90.0355 38.16 90.3955 37.94C90.7622 37.7133 91.0422 37.39 91.2355 36.97H92.3255C92.0655 37.6367 91.6522 38.1533 91.0855 38.52C90.5189 38.88 89.8555 39.06 89.0955 39.06C88.4489 39.06 87.8589 38.91 87.3255 38.61C86.7989 38.3033 86.3822 37.88 86.0755 37.34C85.7689 36.8 85.6155 36.19 85.6155 35.51ZM96.4002 33.42C96.8135 33.42 97.1868 33.51 97.5202 33.69C97.8535 33.8633 98.1135 34.1267 98.3002 34.48C98.4935 34.8333 98.5902 35.2633 98.5902 35.77V39H97.6902V35.9C97.6902 35.3533 97.5535 34.9367 97.2802 34.65C97.0068 34.3567 96.6335 34.21 96.1602 34.21C95.6802 34.21 95.2968 34.36 95.0102 34.66C94.7302 34.96 94.5902 35.3967 94.5902 35.97V39H93.6802V31.6H94.5902V34.3C94.7702 34.02 95.0168 33.8033 95.3302 33.65C95.6502 33.4967 96.0068 33.42 96.4002 33.42ZM99.7366 36.24C99.7366 35.68 99.85 35.19 100.077 34.77C100.303 34.3433 100.613 34.0133 101.007 33.78C101.407 33.5467 101.85 33.43 102.337 33.43C102.817 33.43 103.233 33.5333 103.587 33.74C103.94 33.9467 104.203 34.2067 104.377 34.52V33.52H105.297V39H104.377V37.98C104.197 38.3 103.927 38.5667 103.567 38.78C103.213 38.9867 102.8 39.09 102.327 39.09C101.84 39.09 101.4 38.97 101.007 38.73C100.613 38.49 100.303 38.1533 100.077 37.72C99.85 37.2867 99.7366 36.7933 99.7366 36.24ZM104.377 36.25C104.377 35.8367 104.293 35.4767 104.127 35.17C103.96 34.8633 103.733 34.63 103.447 34.47C103.167 34.3033 102.857 34.22 102.517 34.22C102.177 34.22 101.867 34.3 101.587 34.46C101.307 34.62 101.083 34.8533 100.917 35.16C100.75 35.4667 100.667 35.8267 100.667 36.24C100.667 36.66 100.75 37.0267 100.917 37.34C101.083 37.6467 101.307 37.8833 101.587 38.05C101.867 38.21 102.177 38.29 102.517 38.29C102.857 38.29 103.167 38.21 103.447 38.05C103.733 37.8833 103.96 37.6467 104.127 37.34C104.293 37.0267 104.377 36.6633 104.377 36.25ZM107.744 34.53C107.924 34.2167 108.191 33.9567 108.544 33.75C108.904 33.5367 109.321 33.43 109.794 33.43C110.281 33.43 110.721 33.5467 111.114 33.78C111.514 34.0133 111.828 34.3433 112.054 34.77C112.281 35.19 112.394 35.68 112.394 36.24C112.394 36.7933 112.281 37.2867 112.054 37.72C111.828 38.1533 111.514 38.49 111.114 38.73C110.721 38.97 110.281 39.09 109.794 39.09C109.328 39.09 108.914 38.9867 108.554 38.78C108.201 38.5667 107.931 38.3033 107.744 37.99V41.6H106.834V33.52H107.744V34.53ZM111.464 36.24C111.464 35.8267 111.381 35.4667 111.214 35.16C111.048 34.8533 110.821 34.62 110.534 34.46C110.254 34.3 109.944 34.22 109.604 34.22C109.271 34.22 108.961 34.3033 108.674 34.47C108.394 34.63 108.168 34.8667 107.994 35.18C107.828 35.4867 107.744 35.8433 107.744 36.25C107.744 36.6633 107.828 37.0267 107.994 37.34C108.168 37.6467 108.394 37.8833 108.674 38.05C108.961 38.21 109.271 38.29 109.604 38.29C109.944 38.29 110.254 38.21 110.534 38.05C110.821 37.8833 111.048 37.6467 111.214 37.34C111.381 37.0267 111.464 36.66 111.464 36.24ZM114.702 34.27V37.5C114.702 37.7667 114.759 37.9567 114.872 38.07C114.986 38.1767 115.182 38.23 115.462 38.23H116.132V39H115.312C114.806 39 114.426 38.8833 114.172 38.65C113.919 38.4167 113.792 38.0333 113.792 37.5V34.27H113.082V33.52H113.792V32.14H114.702V33.52H116.132V34.27H114.702ZM122.235 36.05C122.235 36.2233 122.225 36.4067 122.205 36.6H117.825C117.858 37.14 118.042 37.5633 118.375 37.87C118.715 38.17 119.125 38.32 119.605 38.32C119.998 38.32 120.325 38.23 120.585 38.05C120.852 37.8633 121.038 37.6167 121.145 37.31H122.125C121.978 37.8367 121.685 38.2667 121.245 38.6C120.805 38.9267 120.258 39.09 119.605 39.09C119.085 39.09 118.618 38.9733 118.205 38.74C117.798 38.5067 117.478 38.1767 117.245 37.75C117.012 37.3167 116.895 36.8167 116.895 36.25C116.895 35.6833 117.008 35.1867 117.235 34.76C117.462 34.3333 117.778 34.0067 118.185 33.78C118.598 33.5467 119.072 33.43 119.605 33.43C120.125 33.43 120.585 33.5433 120.985 33.77C121.385 33.9967 121.692 34.31 121.905 34.71C122.125 35.1033 122.235 35.55 122.235 36.05ZM121.295 35.86C121.295 35.5133 121.218 35.2167 121.065 34.97C120.912 34.7167 120.702 34.5267 120.435 34.4C120.175 34.2667 119.885 34.2 119.565 34.2C119.105 34.2 118.712 34.3467 118.385 34.64C118.065 34.9333 117.882 35.34 117.835 35.86H121.295ZM124.346 34.41C124.506 34.0967 124.733 33.8533 125.026 33.68C125.326 33.5067 125.689 33.42 126.116 33.42V34.36H125.876C124.856 34.36 124.346 34.9133 124.346 36.02V39H123.436V33.52H124.346V34.41ZM129.573 38.27C130.419 37.59 131.083 37.0333 131.562 36.6C132.043 36.16 132.446 35.7033 132.773 35.23C133.106 34.75 133.273 34.28 133.273 33.82C133.273 33.3867 133.166 33.0467 132.953 32.8C132.746 32.5467 132.409 32.42 131.943 32.42C131.489 32.42 131.136 32.5633 130.883 32.85C130.636 33.13 130.503 33.5067 130.483 33.98H129.603C129.629 33.2333 129.856 32.6567 130.283 32.25C130.709 31.8433 131.259 31.64 131.933 31.64C132.619 31.64 133.163 31.83 133.563 32.21C133.969 32.59 134.173 33.1133 134.173 33.78C134.173 34.3333 134.006 34.8733 133.673 35.4C133.346 35.92 132.973 36.38 132.553 36.78C132.133 37.1733 131.596 37.6333 130.943 38.16H134.383V38.92H129.573V38.27Z" fill="#2E2E5D"/>
<path fill-rule="evenodd" clip-rule="evenodd" d="M198.335 2H189.666C186.268 2 184.001 4.4326 184.001 7.916V16.084C184.001 19.5711 186.261 22 189.666 22H198.334C201.738 22 204.001 19.5707 204.001 16.084V7.916C204.001 4.4295 201.738 2 198.335 2ZM189.666 3.5H198.335C200.885 3.5 202.501 5.23496 202.501 7.916V16.084C202.501 18.7652 200.885 20.5 198.334 20.5H189.666C187.115 20.5 185.501 18.7657 185.501 16.084V7.916C185.501 5.23837 187.121 3.5 189.666 3.5ZM194.743 7.53173C194.694 7.16565 194.38 6.8835 194 6.8835C193.586 6.8835 193.25 7.21929 193.25 7.6335V11.9945L193.259 12.1062C193.292 12.3263 193.422 12.5226 193.616 12.6386L197.007 14.6616L197.098 14.7079C197.438 14.8528 197.841 14.7278 198.035 14.4018L198.082 14.3108C198.227 13.971 198.102 13.5679 197.776 13.3734L194.75 11.5678L194.75 7.6335L194.743 7.53173Z" fill="#2E2E5D"/>
<path d="M172.62 39.07C172.16 39.07 171.746 38.99 171.38 38.83C171.02 38.6633 170.736 38.4367 170.53 38.15C170.323 37.8567 170.216 37.52 170.21 37.14H171.18C171.213 37.4667 171.346 37.7433 171.58 37.97C171.82 38.19 172.166 38.3 172.62 38.3C173.053 38.3 173.393 38.1933 173.64 37.98C173.893 37.76 174.02 37.48 174.02 37.14C174.02 36.8733 173.946 36.6567 173.8 36.49C173.653 36.3233 173.47 36.1967 173.25 36.11C173.03 36.0233 172.733 35.93 172.36 35.83C171.9 35.71 171.53 35.59 171.25 35.47C170.976 35.35 170.74 35.1633 170.54 34.91C170.346 34.65 170.25 34.3033 170.25 33.87C170.25 33.49 170.346 33.1533 170.54 32.86C170.733 32.5667 171.003 32.34 171.35 32.18C171.703 32.02 172.106 31.94 172.56 31.94C173.213 31.94 173.746 32.1033 174.16 32.43C174.58 32.7567 174.816 33.19 174.87 33.73H173.87C173.836 33.4633 173.696 33.23 173.45 33.03C173.203 32.8233 172.876 32.72 172.47 32.72C172.09 32.72 171.78 32.82 171.54 33.02C171.3 33.2133 171.18 33.4867 171.18 33.84C171.18 34.0933 171.25 34.3 171.39 34.46C171.536 34.62 171.713 34.7433 171.92 34.83C172.133 34.91 172.43 35.0033 172.81 35.11C173.27 35.2367 173.64 35.3633 173.92 35.49C174.2 35.61 174.44 35.8 174.64 36.06C174.84 36.3133 174.94 36.66 174.94 37.1C174.94 37.44 174.85 37.76 174.67 38.06C174.49 38.36 174.223 38.6033 173.87 38.79C173.516 38.9767 173.1 39.07 172.62 39.07ZM177.189 34.53C177.369 34.2167 177.635 33.9567 177.989 33.75C178.349 33.5367 178.765 33.43 179.239 33.43C179.725 33.43 180.165 33.5467 180.559 33.78C180.959 34.0133 181.272 34.3433 181.499 34.77C181.725 35.19 181.839 35.68 181.839 36.24C181.839 36.7933 181.725 37.2867 181.499 37.72C181.272 38.1533 180.959 38.49 180.559 38.73C180.165 38.97 179.725 39.09 179.239 39.09C178.772 39.09 178.359 38.9867 177.999 38.78C177.645 38.5667 177.375 38.3033 177.189 37.99V41.6H176.279V33.52H177.189V34.53ZM180.909 36.24C180.909 35.8267 180.825 35.4667 180.659 35.16C180.492 34.8533 180.265 34.62 179.979 34.46C179.699 34.3 179.389 34.22 179.049 34.22C178.715 34.22 178.405 34.3033 178.119 34.47C177.839 34.63 177.612 34.8667 177.439 35.18C177.272 35.4867 177.189 35.8433 177.189 36.25C177.189 36.6633 177.272 37.0267 177.439 37.34C177.612 37.6467 177.839 37.8833 178.119 38.05C178.405 38.21 178.715 38.29 179.049 38.29C179.389 38.29 179.699 38.21 179.979 38.05C180.265 37.8833 180.492 37.6467 180.659 37.34C180.825 37.0267 180.909 36.66 180.909 36.24ZM188.037 36.05C188.037 36.2233 188.027 36.4067 188.007 36.6H183.627C183.66 37.14 183.843 37.5633 184.177 37.87C184.517 38.17 184.927 38.32 185.407 38.32C185.8 38.32 186.127 38.23 186.387 38.05C186.653 37.8633 186.84 37.6167 186.947 37.31H187.927C187.78 37.8367 187.487 38.2667 187.047 38.6C186.607 38.9267 186.06 39.09 185.407 39.09C184.887 39.09 184.42 38.9733 184.007 38.74C183.6 38.5067 183.28 38.1767 183.047 37.75C182.813 37.3167 182.697 36.8167 182.697 36.25C182.697 35.6833 182.81 35.1867 183.037 34.76C183.263 34.3333 183.58 34.0067 183.987 33.78C184.4 33.5467 184.873 33.43 185.407 33.43C185.927 33.43 186.387 33.5433 186.787 33.77C187.187 33.9967 187.493 34.31 187.707 34.71C187.927 35.1033 188.037 35.55 188.037 36.05ZM187.097 35.86C187.097 35.5133 187.02 35.2167 186.867 34.97C186.713 34.7167 186.503 34.5267 186.237 34.4C185.977 34.2667 185.687 34.2 185.367 34.2C184.907 34.2 184.513 34.3467 184.187 34.64C183.867 34.9333 183.683 35.34 183.637 35.86H187.097ZM194.238 36.05C194.238 36.2233 194.228 36.4067 194.208 36.6H189.828C189.861 37.14 190.044 37.5633 190.378 37.87C190.718 38.17 191.128 38.32 191.608 38.32C192.001 38.32 192.328 38.23 192.588 38.05C192.854 37.8633 193.041 37.6167 193.148 37.31H194.128C193.981 37.8367 193.688 38.2667 193.248 38.6C192.808 38.9267 192.261 39.09 191.608 39.09C191.088 39.09 190.621 38.9733 190.208 38.74C189.801 38.5067 189.481 38.1767 189.248 37.75C189.014 37.3167 188.898 36.8167 188.898 36.25C188.898 35.6833 189.011 35.1867 189.238 34.76C189.464 34.3333 189.781 34.0067 190.188 33.78C190.601 33.5467 191.074 33.43 191.608 33.43C192.128 33.43 192.588 33.5433 192.988 33.77C193.388 33.9967 193.694 34.31 193.908 34.71C194.128 35.1033 194.238 35.55 194.238 36.05ZM193.298 35.86C193.298 35.5133 193.221 35.2167 193.068 34.97C192.914 34.7167 192.704 34.5267 192.438 34.4C192.178 34.2667 191.888 34.2 191.568 34.2C191.108 34.2 190.714 34.3467 190.388 34.64C190.068 34.9333 189.884 35.34 189.838 35.86H193.298ZM195.099 36.24C195.099 35.68 195.212 35.19 195.439 34.77C195.666 34.3433 195.976 34.0133 196.369 33.78C196.769 33.5467 197.216 33.43 197.709 33.43C198.136 33.43 198.532 33.53 198.899 33.73C199.266 33.9233 199.546 34.18 199.739 34.5V31.6H200.659V39H199.739V37.97C199.559 38.2967 199.292 38.5667 198.939 38.78C198.586 38.9867 198.172 39.09 197.699 39.09C197.212 39.09 196.769 38.97 196.369 38.73C195.976 38.49 195.666 38.1533 195.439 37.72C195.212 37.2867 195.099 36.7933 195.099 36.24ZM199.739 36.25C199.739 35.8367 199.656 35.4767 199.489 35.17C199.322 34.8633 199.096 34.63 198.809 34.47C198.529 34.3033 198.219 34.22 197.879 34.22C197.539 34.22 197.229 34.3 196.949 34.46C196.669 34.62 196.446 34.8533 196.279 35.16C196.112 35.4667 196.029 35.8267 196.029 36.24C196.029 36.66 196.112 37.0267 196.279 37.34C196.446 37.6467 196.669 37.8833 196.949 38.05C197.229 38.21 197.539 38.29 197.879 38.29C198.219 38.29 198.529 38.21 198.809 38.05C199.096 37.8833 199.322 37.6467 199.489 37.34C199.656 37.0267 199.739 36.6633 199.739 36.25ZM204.473 32.6V31.77H206.353V39H205.433V32.6H204.473ZM207.916 35.31C207.916 34.1633 208.103 33.27 208.476 32.63C208.849 31.9833 209.503 31.66 210.436 31.66C211.363 31.66 212.013 31.9833 212.386 32.63C212.759 33.27 212.946 34.1633 212.946 35.31C212.946 36.4767 212.759 37.3833 212.386 38.03C212.013 38.6767 211.363 39 210.436 39C209.503 39 208.849 38.6767 208.476 38.03C208.103 37.3833 207.916 36.4767 207.916 35.31ZM212.046 35.31C212.046 34.73 212.006 34.24 211.926 33.84C211.853 33.4333 211.696 33.1067 211.456 32.86C211.223 32.6133 210.883 32.49 210.436 32.49C209.983 32.49 209.636 32.6133 209.396 32.86C209.163 33.1067 209.006 33.4333 208.926 33.84C208.853 34.24 208.816 34.73 208.816 35.31C208.816 35.91 208.853 36.4133 208.926 36.82C209.006 37.2267 209.163 37.5533 209.396 37.8C209.636 38.0467 209.983 38.17 210.436 38.17C210.883 38.17 211.223 38.0467 211.456 37.8C211.696 37.5533 211.853 37.2267 211.926 36.82C212.006 36.4133 212.046 35.91 212.046 35.31ZM217.205 39L215.905 36.96L214.655 39H213.705L215.475 36.28L213.705 33.52H214.735L216.035 35.55L217.275 33.52H218.225L216.465 36.23L218.235 39H217.205Z" fill="#2E2E5D"/>
<path fill-rule="evenodd" clip-rule="evenodd" d="M273.666 2H282.335C285.739 2 288 4.42931 288 7.916V16.084C288 19.567 285.732 22 282.335 22H273.666C270.262 22 268 19.5705 268 16.084V7.916C268 4.4295 270.262 2 273.666 2ZM282.335 3.5H273.666C271.115 3.5 269.5 5.23496 269.5 7.916V16.084C269.5 18.765 271.115 20.5 273.666 20.5H282.335C284.879 20.5 286.5 18.7612 286.5 16.084V7.916C286.5 5.23468 284.885 3.5 282.335 3.5ZM278 7.164C278.38 7.164 278.693 7.44615 278.743 7.81223L278.75 7.914V14.2692L281.216 11.7931C281.482 11.5263 281.899 11.5012 282.193 11.7184L282.277 11.7908C282.544 12.0565 282.569 12.4732 282.352 12.7672L282.279 12.8515L278.531 16.6155C278.265 16.8831 277.847 16.9075 277.553 16.6885L277.55 16.6858C277.522 16.6648 277.495 16.642 277.471 16.6174L277.468 16.6155L273.72 12.8515C273.428 12.558 273.429 12.0831 273.723 11.7908C273.99 11.5251 274.406 11.5018 274.699 11.7203L274.783 11.7931L277.25 14.2706V7.914C277.25 7.49979 277.586 7.164 278 7.164Z" fill="#2E2E5D"/>
<path d="M255.72 32.03C256.48 32.03 257.137 32.1733 257.69 32.46C258.25 32.74 258.677 33.1433 258.97 33.67C259.27 34.1967 259.42 34.8167 259.42 35.53C259.42 36.2433 259.27 36.8633 258.97 37.39C258.677 37.91 258.25 38.31 257.69 38.59C257.137 38.8633 256.48 39 255.72 39H253.55V32.03H255.72ZM255.72 38.25C256.62 38.25 257.307 38.0133 257.78 37.54C258.254 37.06 258.49 36.39 258.49 35.53C258.49 34.6633 258.25 33.9867 257.77 33.5C257.297 33.0133 256.614 32.77 255.72 32.77H254.46V38.25H255.72ZM263.011 39.09C262.497 39.09 262.031 38.9733 261.611 38.74C261.197 38.5067 260.871 38.1767 260.631 37.75C260.397 37.3167 260.281 36.8167 260.281 36.25C260.281 35.69 260.401 35.1967 260.641 34.77C260.887 34.3367 261.221 34.0067 261.641 33.78C262.061 33.5467 262.531 33.43 263.051 33.43C263.571 33.43 264.041 33.5467 264.461 33.78C264.881 34.0067 265.211 34.3333 265.451 34.76C265.697 35.1867 265.821 35.6833 265.821 36.25C265.821 36.8167 265.694 37.3167 265.441 37.75C265.194 38.1767 264.857 38.5067 264.431 38.74C264.004 38.9733 263.531 39.09 263.011 39.09ZM263.011 38.29C263.337 38.29 263.644 38.2133 263.931 38.06C264.217 37.9067 264.447 37.6767 264.621 37.37C264.801 37.0633 264.891 36.69 264.891 36.25C264.891 35.81 264.804 35.4367 264.631 35.13C264.457 34.8233 264.231 34.5967 263.951 34.45C263.671 34.2967 263.367 34.22 263.041 34.22C262.707 34.22 262.401 34.2967 262.121 34.45C261.847 34.5967 261.627 34.8233 261.461 35.13C261.294 35.4367 261.211 35.81 261.211 36.25C261.211 36.6967 261.291 37.0733 261.451 37.38C261.617 37.6867 261.837 37.9167 262.111 38.07C262.384 38.2167 262.684 38.29 263.011 38.29ZM274.317 33.52L272.607 39H271.667L270.347 34.65L269.027 39H268.087L266.367 33.52H267.297L268.557 38.12L269.917 33.52H270.847L272.177 38.13L273.417 33.52H274.317ZM277.89 33.42C278.557 33.42 279.097 33.6233 279.51 34.03C279.924 34.43 280.13 35.01 280.13 35.77V39H279.23V35.9C279.23 35.3533 279.094 34.9367 278.82 34.65C278.547 34.3567 278.174 34.21 277.7 34.21C277.22 34.21 276.837 34.36 276.55 34.66C276.27 34.96 276.13 35.3967 276.13 35.97V39H275.22V33.52H276.13V34.3C276.31 34.02 276.554 33.8033 276.86 33.65C277.174 33.4967 277.517 33.42 277.89 33.42ZM282.527 31.6V39H281.617V31.6H282.527ZM286.468 39.09C285.954 39.09 285.488 38.9733 285.068 38.74C284.654 38.5067 284.328 38.1767 284.088 37.75C283.854 37.3167 283.738 36.8167 283.738 36.25C283.738 35.69 283.858 35.1967 284.098 34.77C284.344 34.3367 284.678 34.0067 285.098 33.78C285.518 33.5467 285.988 33.43 286.508 33.43C287.028 33.43 287.498 33.5467 287.918 33.78C288.338 34.0067 288.668 34.3333 288.908 34.76C289.154 35.1867 289.278 35.6833 289.278 36.25C289.278 36.8167 289.151 37.3167 288.898 37.75C288.651 38.1767 288.314 38.5067 287.888 38.74C287.461 38.9733 286.988 39.09 286.468 39.09ZM286.468 38.29C286.794 38.29 287.101 38.2133 287.388 38.06C287.674 37.9067 287.904 37.6767 288.078 37.37C288.258 37.0633 288.348 36.69 288.348 36.25C288.348 35.81 288.261 35.4367 288.088 35.13C287.914 34.8233 287.688 34.5967 287.408 34.45C287.128 34.2967 286.824 34.22 286.498 34.22C286.164 34.22 285.858 34.2967 285.578 34.45C285.304 34.5967 285.084 34.8233 284.918 35.13C284.751 35.4367 284.668 35.81 284.668 36.25C284.668 36.6967 284.748 37.0733 284.908 37.38C285.074 37.6867 285.294 37.9167 285.568 38.07C285.841 38.2167 286.141 38.29 286.468 38.29ZM290.134 36.24C290.134 35.68 290.247 35.19 290.474 34.77C290.701 34.3433 291.011 34.0133 291.404 33.78C291.804 33.5467 292.247 33.43 292.734 33.43C293.214 33.43 293.631 33.5333 293.984 33.74C294.337 33.9467 294.601 34.2067 294.774 34.52V33.52H295.694V39H294.774V37.98C294.594 38.3 294.324 38.5667 293.964 38.78C293.611 38.9867 293.197 39.09 292.724 39.09C292.237 39.09 291.797 38.97 291.404 38.73C291.011 38.49 290.701 38.1533 290.474 37.72C290.247 37.2867 290.134 36.7933 290.134 36.24ZM294.774 36.25C294.774 35.8367 294.691 35.4767 294.524 35.17C294.357 34.8633 294.131 34.63 293.844 34.47C293.564 34.3033 293.254 34.22 292.914 34.22C292.574 34.22 292.264 34.3 291.984 34.46C291.704 34.62 291.481 34.8533 291.314 35.16C291.147 35.4667 291.064 35.8267 291.064 36.24C291.064 36.66 291.147 37.0267 291.314 37.34C291.481 37.6467 291.704 37.8833 291.984 38.05C292.264 38.21 292.574 38.29 292.914 38.29C293.254 38.29 293.564 38.21 293.844 38.05C294.131 37.8833 294.357 37.6467 294.524 37.34C294.691 37.0267 294.774 36.6633 294.774 36.25ZM296.892 36.24C296.892 35.68 297.005 35.19 297.232 34.77C297.459 34.3433 297.769 34.0133 298.162 33.78C298.562 33.5467 299.009 33.43 299.502 33.43C299.929 33.43 300.325 33.53 300.692 33.73C301.059 33.9233 301.339 34.18 301.532 34.5V31.6H302.452V39H301.532V37.97C301.352 38.2967 301.085 38.5667 300.732 38.78C300.379 38.9867 299.965 39.09 299.492 39.09C299.005 39.09 298.562 38.97 298.162 38.73C297.769 38.49 297.459 38.1533 297.232 37.72C297.005 37.2867 296.892 36.7933 296.892 36.24ZM301.532 36.25C301.532 35.8367 301.449 35.4767 301.282 35.17C301.115 34.8633 300.889 34.63 300.602 34.47C300.322 34.3033 300.012 34.22 299.672 34.22C299.332 34.22 299.022 34.3 298.742 34.46C298.462 34.62 298.239 34.8533 298.072 35.16C297.905 35.4667 297.822 35.8267 297.822 36.24C297.822 36.66 297.905 37.0267 298.072 37.34C298.239 37.6467 298.462 37.8833 298.742 38.05C299.022 38.21 299.332 38.29 299.672 38.29C300.012 38.29 300.322 38.21 300.602 38.05C300.889 37.8833 301.115 37.6467 301.282 37.34C301.449 37.0267 301.532 36.6633 301.532 36.25Z" fill="#2E2E5D"/>
</svg>
