<svg width="25" height="24" viewBox="0 0 25 24" fill="none" xmlns="http://www.w3.org/2000/svg">
<path fill-rule="evenodd" clip-rule="evenodd" d="M20.8552 7.65948C21.5264 8.17848 21.9382 8.94948 22.0083 9.78848L22.0184 9.98948V18.0985C22.0184 20.1885 20.3642 21.8885 18.2913 21.9985H16.2976C15.3448 21.9795 14.5743 21.2395 14.5042 20.3095L14.4942 20.1685V17.3095C14.4942 16.9985 14.2627 16.7395 13.9531 16.6885L13.863 16.6785H11.1869C10.8673 16.6885 10.6068 16.9185 10.5668 17.2185L10.5567 17.3095V20.1595C10.5567 20.2185 10.5457 20.2885 10.5367 20.3385L10.5267 20.3595L10.5157 20.4285C10.3964 21.2795 9.69511 21.9285 8.82347 21.9895L8.69322 21.9985H6.89984C4.80589 21.9985 3.09266 20.3595 2.98245 18.2985V9.98948C2.99147 9.13848 3.36317 8.34848 3.98434 7.79848L10.2261 2.78848C11.4985 1.77948 13.2819 1.73948 14.5934 2.66848L14.7547 2.78848L20.8552 7.65948ZM20.6147 18.2585L20.6257 18.0985V9.99848C20.6147 9.56948 20.4354 9.16848 20.1248 8.86948L19.9945 8.75848L13.883 3.87848C13.1216 3.26848 12.0395 3.23948 11.238 3.76848L11.0867 3.87848L4.99525 8.77948C4.64559 9.03848 4.43519 9.42848 4.3851 9.83848L4.37408 9.99848V18.0985C4.37408 19.4285 5.41604 20.5185 6.73954 20.5985H8.69322C8.91364 20.5985 9.104 20.4495 9.13305 20.2395L9.15409 20.0595L9.16411 20.0085V17.3095C9.16411 16.2395 9.98566 15.3695 11.0376 15.2885H13.863C14.934 15.2885 15.8056 16.1095 15.8868 17.1595V20.1685C15.8868 20.3785 16.0371 20.5595 16.2375 20.5985H18.1C19.4425 20.5985 20.5346 19.5695 20.6147 18.2585Z" fill="#6A6A8B"/>
</svg>
